<?xml version="1.0" encoding="UTF-8" standalone="no"?>
<svg
        xmlns:inkscape="http://www.inkscape.org/namespaces/inkscape"
        xmlns:sodipodi="http://sodipodi.sourceforge.net/DTD/sodipodi-0.dtd"
        version="1.1"
        width="573.18939"
        height="137.40865"
        viewBox="0 0 573.18939 137.40865"
        xml:space="preserve"
        id="svg6"
        sodipodi:docname="logo ZonPHP text left.svg"
        inkscape:export-filename="logo-final2.svg"
        inkscape:export-xdpi="96"
        inkscape:export-ydpi="96"
        inkscape:version="1.3-beta (cedbd6c, 2023-05-28)"
        xmlns="http://www.w3.org/2000/svg"
><sodipodi:namedview
   id="namedview6"
   pagecolor="#ffffff"
   bordercolor="#000000"
   borderopacity="0.25"
   inkscape:showpageshadow="2"
   inkscape:pageopacity="0.0"
   inkscape:pagecheckerboard="true"
   inkscape:deskcolor="#d1d1d1"
   inkscape:zoom="1.4142136"
   inkscape:cx="-51.618795"
   inkscape:cy="8.4852814"
   inkscape:window-width="2984"
   inkscape:window-height="1705"
   inkscape:window-x="208"
   inkscape:window-y="25"
   inkscape:window-maximized="0"
   inkscape:current-layer="svg6"
   showgrid="true"><inkscape:grid
     id="grid1"
     units="px"
     originx="-116.86857"
     originy="0.91338933"
     spacingx="1"
     spacingy="1"
     empcolor="#0099e5"
     empopacity="0.30196078"
     color="#0099e5"
     opacity="0.14901961"
     empspacing="5"
     dotted="false"
     gridanglex="30"
     gridanglez="30"
     visible="true" /></sodipodi:namedview>&#10;<desc
        id="desc1">Created with Fabric.js 3.5.0</desc>&#10;<defs
        id="defs1">&#10;<clipPath
        clipPathUnits="userSpaceOnUse"
        id="clipPath12"><rect
     style="opacity:0.35;fill:#000000;stroke-width:0.267262"
     id="rect12"
     width="469.02896"
     height="15.781942"
     x="-164.34033"
     y="-8.0002069"
     ry="0.82519954" /></clipPath>
    <clipPath
            clipPathUnits="userSpaceOnUse"
            id="clipPath13"><rect
     style="opacity:0.35;fill:#000000;stroke-width:1.00095"
     id="rect13"
     width="705.2323"
     height="147.22435"
     x="-523.74225"
     y="-76.100899"
     ry="7.6980052" /></clipPath>
    <clipPath
            clipPathUnits="userSpaceOnUse"
            id="clipPath14"><rect
     style="opacity:0.35;fill:#000000;stroke-width:0.860286"
     id="rect14"
     width="611.95215"
     height="125.32964"
     x="-82.470337"
     y="-53.177475"
     ry="6.5531836" /></clipPath>
    <clipPath
            clipPathUnits="userSpaceOnUse"
            id="clipPath15"><rect
     style="opacity:0.35;fill:#000000;stroke-width:0.860286"
     id="rect15"
     width="611.95215"
     height="125.32964"
     x="-119.01304"
     y="-71.526665"
     ry="6.5531836" /></clipPath>
    <clipPath
            clipPathUnits="userSpaceOnUse"
            id="clipPath16"><rect
     style="opacity:0.35;fill:#000000;stroke-width:1.00095"
     id="rect16"
     width="705.2323"
     height="147.22435"
     x="19.992077"
     y="389.64749"
     ry="7.6980052" /></clipPath></defs>&#10;<rect
        x="-191.95815"
        y="-443.43961"
        width="100%"
        height="100%"
        fill="rgba(255,255,255,0)"
        id="rect1"
        style="display:none;image-rendering:auto"
        inkscape:highlight-color="#f9f9f9"/>&#10;<g
        transform="matrix(0.9998,0,0,0.9983,-141.82134,-393.4237)"
        id="646319"
        clip-path="url(#clipPath16)">&#10;<rect
        style="opacity:1;fill:#ffffff;fill-opacity:0;fill-rule:nonzero;stroke:none;stroke-width:1;stroke-linecap:butt;stroke-linejoin:miter;stroke-miterlimit:4;stroke-dasharray:none;stroke-dashoffset:0"
        x="-50"
        y="-50"
        rx="0"
        ry="0"
        width="100"
        height="100"
        id="rect2"/>&#10;</g>&#10;<g
        transform="matrix(1.1522,0,0,1.1727,483.11296,80.401317)"
        id="923326"
        clip-path="url(#clipPath15)">&#10;<linearGradient
        id="SVGID_3"
        gradientUnits="userSpaceOnUse"
        x1="120"
        y1="47.16"
        x2="120"
        y2="92.400002">&#10;<stop
        offset="0%"
        style="stop-color:rgb(185,189,193);stop-opacity: 1"
        id="stop2"/>&#10;<stop
        offset="100%"
        style="stop-color:rgb(101,101,102);stop-opacity: 1"
        id="stop3"/>&#10;</linearGradient>&#10;<path
        style="opacity:1;fill:url(#SVGID_3);fill-rule:nonzero;stroke:none;stroke-width:1;stroke-linecap:butt;stroke-linejoin:miter;stroke-miterlimit:4;stroke-dasharray:none;stroke-dashoffset:0"
        vector-effect="non-scaling-stroke"
        transform="translate(-117.043,-69.1833)"
        d="m 42.755,112.764 c -6.001,-4.501 -6.001,-4.501 6.751,-3.25 24.753,2.25 38.755,-10.001 54.507,-47.256 10.751,-26.003 19.252,-36.005 34.254,-40.005 20.753,-5.501 41.755,2.75 52.007,21.003 7.751,14.002 6.251,39.505 -3.5,53.507 -14.252,20.753 -41.505,27.253 -60.508,14.502 -5.001,-3.5 -12.002,-9.751 -15.502,-13.752 -7.501,-9.251 -9.001,-9.251 -13.502,-0.75 -2,3.5 -8.001,9.751 -13.252,13.752 -12.002,8.751 -31.504,9.751 -41.255,2.25 z M 188.023,68.759 c 0,-21.003 -17.002,-38.005 -38.004,-38.005 -21.003,0 -38.005,17.002 -38.005,38.005 0,21.002 17.002,38.004 38.005,38.004 21.002,0 38.004,-17.002 38.004,-38.004 z m -10.751,25.253"
        stroke-linecap="round"
        id="path3"/>&#10;</g>&#10;<g
        transform="matrix(1.1522,0,0,1.1727,441.00847,58.883217)"
        id="g5"
        clip-path="url(#clipPath14)">&#10;<linearGradient
        id="SVGID_4"
        gradientUnits="userSpaceOnUse"
        x1="80.5"
        y1="25.68"
        x2="80"
        y2="95.160004">&#10;<stop
        offset="0%"
        style="stop-color:rgb(223,231,253);stop-opacity: 1"
        id="stop4"/>&#10;<stop
        offset="98%"
        style="stop-color:rgb(170,181,206);stop-opacity: 1"
        id="stop5"/>&#10;</linearGradient>&#10;<path
        style="opacity:1;fill:url(#SVGID_4);fill-rule:nonzero;stroke:none;stroke-width:1;stroke-linecap:butt;stroke-linejoin:miter;stroke-miterlimit:4;stroke-dasharray:none;stroke-dashoffset:0"
        vector-effect="non-scaling-stroke"
        transform="translate(-80.4994,-50.8343)"
        d="M 31.254,97.262 C 22.003,94.762 11.502,85.01 6.001,74.509 -0.5,62.257 2,35.754 10.752,23.253 25.004,2.5 52.257,-4 71.26,8.751 c 5.001,3.5 12.002,9.751 15.502,13.752 7.501,9.251 9.001,9.251 13.502,0.75 2,-3.5 8.001,-9.751 13.252,-13.752 12.002,-8.751 31.504,-9.751 41.255,-2.25 6.001,4.501 6.001,4.501 -6.751,3.25 C 123.267,8.251 109.265,20.502 93.513,57.757 88.262,70.259 81.011,83.76 77.011,87.761 66.01,98.512 48.257,102.263 31.255,97.262 Z M 85.511,51.506 c 0,-21.002 -17.002,-38.004 -38.005,-38.004 -21.003,0 -38.005,17.002 -38.005,38.004 0,21.003 17.002,37.755 38.005,37.755 21.003,0 38.005,-16.752 38.005,-37.755 z M 69.259,79.51"
        stroke-linecap="round"
        id="path5"/>&#10;</g>&#10;<g
        transform="matrix(0.8577298,0,0,0.9983,148.94478,71.927085)"
        id="526019"
        clip-path="url(#clipPath13)">&#10;<path
        style="opacity:1;fill:#a8a8a8;fill-rule:nonzero;stroke:none;stroke-width:1;stroke-linecap:butt;stroke-linejoin:miter;stroke-miterlimit:4;stroke-dasharray:none;stroke-dashoffset:0"
        transform="translate(-183.76,6.26)"
        d="m 10.11,30.16 30.8,-64.17 H 13.67 v -9.47 H 57.5 L 26.98,20.69 h 29.39 v 9.47 z M 65.09,3.67 v 0 q 0,-6.7 1.74,-11.88 1.73,-5.18 4.85,-8.7 3.12,-3.51 7.43,-5.34 4.31,-1.83 9.47,-1.83 v 0 q 5.11,0 9.42,1.78 4.31,1.79 7.45,5.25 3.14,3.47 4.9,8.61 1.76,5.13 1.76,11.83 v 0 q 0,6.7 -1.76,11.91 -1.76,5.2 -4.87,8.74 -3.12,3.54 -7.46,5.37 -4.33,1.83 -9.44,1.83 v 0 q -5.16,0 -9.47,-1.81 -4.31,-1.8 -7.43,-5.3 -3.12,-3.49 -4.85,-8.62 -1.74,-5.13 -1.74,-11.84 z m 23.49,18.75 v 0 q 2.67,0 4.85,-1.1 2.18,-1.1 3.75,-3.42 1.57,-2.32 2.44,-5.93 0.86,-3.61 0.86,-8.58 v 0 q 0,-4.97 -0.86,-8.51 -0.87,-3.54 -2.44,-5.81 -1.57,-2.27 -3.75,-3.33 -2.18,-1.05 -4.85,-1.05 v 0 q -2.63,0 -4.83,1.1 -2.2,1.1 -3.77,3.42 -1.57,2.32 -2.44,5.91 -0.87,3.58 -0.87,8.55 v 0 q 0,4.97 0.87,8.51 0.87,3.54 2.44,5.81 1.57,2.28 3.77,3.35 2.2,1.08 4.83,1.08 z m 35.9,7.74 v -53.21 h 9.99 l 0.65,5.96 q 2.44,-3.14 6.26,-5.07 3.82,-1.92 9.35,-1.92 v 0 q 8.21,0 12.71,5.02 4.5,5.01 4.5,15.33 v 0 33.89 H 156.59 V -3.36 q 0,-6.09 -2.34,-9.02 -2.34,-2.93 -6.61,-2.93 v 0 q -3.52,0 -6.56,1.48 -3.05,1.47 -5.25,4.52 v 0 39.47 z m 61.13,0 v -73.64 q 2.62,-0.1 4.78,-0.17 2.16,-0.07 4.2,-0.09 2.03,-0.02 4.05,-0.02 2.02,0 4.36,0 v 0 q 7.78,0 13.19,1.66 5.42,1.66 8.79,4.69 3.38,3.02 4.9,7.22 1.53,4.19 1.53,9.25 v 0 q 0,5.21 -1.6,9.61 -1.59,4.41 -5.04,7.62 -3.44,3.21 -8.88,5.04 -5.44,1.83 -13.17,1.83 v 0 q -1.31,0 -2.7,-0.05 -1.38,-0.05 -2.88,-0.14 v 0 27.19 z m 11.53,-64.36 v 27.23 q 1.78,0.24 3.38,0.35 1.59,0.12 3.09,0.12 v 0 q 4.64,0 7.73,-1.12 3.1,-1.13 4.97,-3.03 1.88,-1.9 2.67,-4.45 0.8,-2.56 0.8,-5.46 v 0 q 0,-3.1 -0.91,-5.65 -0.92,-2.55 -3,-4.38 -2.09,-1.83 -5.51,-2.82 -3.42,-0.98 -8.39,-0.98 v 0 q -1.13,0 -2.35,0.05 -1.21,0.04 -2.48,0.14 z m 46.78,64.36 v -73.64 h 11.49 v 29.06 h 24.98 v -29.06 h 11.48 V 30.16 H 280.39 V -5.19 h -24.98 v 35.35 z m 67.69,0 v -73.64 q 2.62,-0.1 4.78,-0.17 2.16,-0.07 4.2,-0.09 2.03,-0.02 4.05,-0.02 2.02,0 4.36,0 v 0 q 7.78,0 13.19,1.66 5.42,1.66 8.79,4.69 3.38,3.02 4.9,7.22 1.53,4.19 1.53,9.25 v 0 q 0,5.21 -1.6,9.61 -1.59,4.41 -5.04,7.62 -3.44,3.21 -8.88,5.04 -5.44,1.83 -13.17,1.83 v 0 q -1.31,0 -2.7,-0.05 -1.38,-0.05 -2.88,-0.14 v 0 27.19 z m 11.53,-64.36 v 27.23 q 1.78,0.24 3.38,0.35 1.59,0.12 3.09,0.12 v 0 q 4.64,0 7.73,-1.12 3.1,-1.13 4.97,-3.03 1.88,-1.9 2.67,-4.45 0.8,-2.56 0.8,-5.46 v 0 q 0,-3.1 -0.91,-5.65 -0.92,-2.55 -3,-4.38 -2.09,-1.83 -5.51,-2.82 -3.42,-0.98 -8.39,-0.98 v 0 q -1.13,0 -2.35,0.05 -1.21,0.04 -2.48,0.14 z"
        stroke-linecap="round"
        id="path6"/>&#10;</g>&#10;<g
        transform="matrix(1.5033,0,0,9.3128,326.25871,68.481674)"
        id="887116"
        clip-path="url(#clipPath12)">&#10;<rect
        style="opacity:1;fill:#a8a8a8;fill-rule:nonzero;stroke:none;stroke-width:1;stroke-linecap:butt;stroke-linejoin:miter;stroke-miterlimit:4;stroke-dasharray:none;stroke-dashoffset:0"
        vector-effect="non-scaling-stroke"
        x="-1.079"
        y="-7.3534999"
        rx="0"
        ry="0"
        width="2.158"
        height="14.707"
        id="rect6"/>&#10;</g>&#10;</svg>
