<?xml version="1.0" encoding="UTF-8" standalone="no"?>
<svg
        xmlns:inkscape="http://www.inkscape.org/namespaces/inkscape"
        xmlns:sodipodi="http://sodipodi.sourceforge.net/DTD/sodipodi-0.dtd"
        xmlns:rdf="http://www.w3.org/1999/02/22-rdf-syntax-ns#"
        xmlns:cc="http://creativecommons.org/ns#"
        xmlns:dc="http://purl.org/dc/elements/1.1/"
        id="Layer_1"
        data-name="Layer 1"
        viewBox="0 0 200 150"
        version="1.1"
        sodipodi:docname="themes copy.svg"
        width="200"
        height="150"
        inkscape:version="1.3-beta (cedbd6c, 2023-05-28)"
        xmlns="http://www.w3.org/2000/svg">
    <sodipodi:namedview
            id="namedview5"
            pagecolor="#ffffff"
            bordercolor="#000000"
            borderopacity="0.25"
            inkscape:showpageshadow="2"
            inkscape:pageopacity="0.0"
            inkscape:pagecheckerboard="0"
            inkscape:deskcolor="#d1d1d1"
            showgrid="true"
            inkscape:zoom="8.4716799"
            inkscape:cx="96.497981"
            inkscape:cy="61.439999"
            inkscape:window-width="2436"
            inkscape:window-height="1914"
            inkscape:window-x="0"
            inkscape:window-y="25"
            inkscape:window-maximized="0"
            inkscape:current-layer="Layer_1">
        <inkscape:grid
                id="grid5"
                units="px"
                originx="0"
                originy="0"
                spacingx="1"
                spacingy="1"
                empcolor="#0099e5"
                empopacity="0.30196078"
                color="#0099e5"
                opacity="0.14901961"
                empspacing="5"
                dotted="false"
                gridanglex="30"
                gridanglez="30"
                visible="true"/>
    </sodipodi:namedview>
    <defs
            id="defs1">
        <inkscape:path-effect
                effect="fillet_chamfer"
                id="path-effect7"
                is_visible="true"
                lpeversion="1"
                nodesatellites_param="F,0,0,1,0,0,0,1 @ F,0,0,1,0,0,0,1 @ F,0,0,1,0,0,0,1 @ F,0,0,1,0,0,0,1 @ F,0,0,1,0,0,0,1 @ F,0,0,1,0,0,0,1 @ F,0,0,1,0,0,0,1 @ F,0,0,1,0,0,0,1 @ F,0,0,1,0,0,0,1"
                radius="0"
                unit="px"
                method="auto"
                mode="F"
                chamfer_steps="1"
                flexible="false"
                use_knot_distance="true"
                apply_no_radius="true"
                apply_with_radius="true"
                only_selected="false"
                hide_knots="false"/>
        <style
                id="style1">
            .cls-1{fill:#6e6e6e;}.cls-1,.cls-2,.cls-3,.cls-4,.cls-5{fill-rule:evenodd;}.cls-2{fill:#fb434c;}.cls-3{fill:#33a867;}.cls-4{fill:#47bcff;}.cls-5{fill:#fdba21;}
        </style>
    </defs>
    <title
            id="title1">themes
    </title>
    <path
            class="cls-1"
            d="m 121.48237,45.519522 7.98736,8.051572 a 1.7749681,1.7892383 0 0 1 0,2.500622 l -12.8311,12.934253 a 1.7001201,1.7137885 0 0 1 -0.35285,0.269463 l 10.62842,10.713874 a 2.1385158,2.1557088 0 0 1 0,2.996435 l -2.13851,2.155708 a 2.1385158,2.1557088 0 0 1 -2.97254,0 L 89.586402,52.579468 a 2.1385158,2.1557088 0 0 1 0,-3.007214 l 2.138516,-2.155709 a 2.1385158,2.1557088 0 0 1 2.972538,0 l 11.216524,11.382143 a 1.8391236,1.8539096 0 0 1 0.278,-0.355692 l 12.8311,-12.934254 a 1.7749681,1.7892383 0 0 1 2.48068,0 z m -2.99392,40.085406 -15.21554,20.080432 -6.60802,-6.661145 4.99344,-11.17735 -8.040825,8.105464 -6.864636,-6.919824 4.993435,-11.177351 -8.030128,8.105465 -6.255158,-6.337784 8.040819,-8.105466 -11.088204,5.076696 -4.822354,-4.861125 19.920275,-15.337868 z m 2.49137,-35.83866 4.27703,4.311417 a 1.2296466,1.2395325 0 0 1 0,1.746125 l -1.24033,1.250311 a 1.2403392,1.2503111 0 0 1 -1.7322,0 l -4.27704,-4.311418 a 1.2296466,1.2395325 0 0 1 0,-1.746124 l 1.24034,-1.250311 a 1.2082615,1.2179754 0 0 1 1.7215,0 z"
            id="path1"
            style="stroke-width:1.07354;fill:#db76d2;fill-opacity:1"/>
    <path
            class="cls-2"
            d="m 199.99095,12.870003 0.002,9.09 c -0.009,1.58995 -2.09917,2.879466 -4.68693,2.890937 L 4.6971268,24.889059 C 2.1030101,24.884091 0.00202182,23.593823 -0.00722707,22 L -0.00904493,12.91 C -4.3321536e-4,11.316174 2.1000387,10.025065 4.694153,10.01906 L 195.30287,9.9809407 c 2.59412,0.00497 4.69511,1.2952353 4.70436,2.8890593 z"
            id="path2"
            style="fill:#fa2714;fill-opacity:1;stroke-width:1.27578"
            inkscape:path-effect="#path-effect7"
            inkscape:original-d="m 199.99095,12.870003 0.002,9.09 a 2.9,4.7200521 89.988542 0 1 -4.68693,2.890937 L 4.6971268,24.889059 A 2.9,4.7200521 89.988542 0 1 -0.00722707,22 L -0.00904493,12.91 A 2.9,4.7200521 89.988542 0 1 4.694153,10.01906 L 195.30287,9.9809407 A 2.9,4.7200521 89.988542 0 1 200.00723,12.87 Z"/>
    <path
            class="cls-3"
            d="m 199.99186,127.89 v 9.09 a 4.7200521,2.9 0 0 1 -4.70378,2.89 H 4.695638 a 4.7200521,2.9 0 0 1 -4.703776,-2.89 v -9.09 A 4.7200521,2.9 0 0 1 4.695638,125 H 195.30436 a 4.7200521,2.9 0 0 1 4.70378,2.89 z"
            id="path3"
            style="stroke-width:1.27578;fill:#5cc127;fill-opacity:1"/>
    <path
            class="cls-4"
            d="m 12.92,5.340109e-6 h 9.1 A 2.9,3.5397506 0 0 1 24.92,3.5275499 V 146.47245 a 2.9,3.5397506 0 0 1 -2.89,3.52754 H 12.92 A 2.9,3.5397506 0 0 1 10,146.47245 V 3.5275499 A 2.9,3.5397506 0 0 1 12.92,5.340109e-6 Z"
            id="path4"
            style="stroke-width:1.10481;fill:#1479ee;fill-opacity:1"/>
    <path
            class="cls-5"
            d="m 178.01,0 h 9.1 A 2.9,3.539751 0 0 1 190,3.5275449 V 146.47246 A 2.9,3.539751 0 0 1 187.11,150 h -9.1 a 2.9,3.539751 0 0 1 -2.89,-3.52754 V 3.5275449 A 2.9,3.539751 0 0 1 178.01,0 Z"
            id="path5"
            style="stroke-width:1.10481;fill:#fddf21;fill-opacity:1"/>
    <metadata
            id="metadata5">
        <rdf:RDF>
            <cc:Work
                    rdf:about="">
                <dc:title>themes</dc:title>
            </cc:Work>
        </rdf:RDF>
    </metadata>
</svg>
